<svg id="Capa_1" enable-background="new 0 0 511.986 511.986" height="512" viewBox="0 0 511.986 511.986" width="512" xmlns="http://www.w3.org/2000/svg"><g><g><path d="m452.171 7.155h-243.681c-16.049 0-29.179 13.131-29.179 29.179v166.767h122.814c16.049 0 29.179 13.131 29.179 29.179v76.913h120.867c16.049 0 29.179-13.13 29.179-29.179v-243.68c0-16.049-13.131-29.179-29.179-29.179z" fill="#dbedff"/><g fill="#b5dcff"><path d="m348.791 203.102h-46.667c16.049 0 29.179 13.131 29.179 29.179v76.913h46.667v-76.913c.001-16.049-13.13-29.179-29.179-29.179z"/><path d="m255.156 7.155h-46.666c-16.049 0-29.179 13.131-29.179 29.179v166.767h46.667v-166.767c-.001-16.048 13.13-29.179 29.178-29.179z"/></g><path d="m303.124 202.102h-243.681c-16.049 0-29.179 13.131-29.179 29.179v243.681c0 16.049 13.131 29.179 29.179 29.179h243.681c16.049 0 29.179-13.131 29.179-29.179v-243.681c.001-16.049-13.13-29.179-29.179-29.179z" fill="#dbedff"/><path d="m76.931 474.962v-243.681c0-16.049 13.131-29.179 29.179-29.179h-46.667c-16.049 0-29.179 13.131-29.179 29.179v243.681c0 16.049 13.131 29.179 29.179 29.179h46.667c-16.049 0-29.179-13.13-29.179-29.179z" fill="#b5dcff"/><g><circle cx="385.77" cy="213.614" fill="#f87c68" r="21.907"/><path d="m390.779 229.105c-8.555-8.555-8.555-22.426 0-30.981 1.586-1.586 3.357-2.875 5.241-3.873-8.277-4.385-18.772-3.096-25.741 3.873-8.555 8.555-8.555 22.426 0 30.981 6.969 6.969 17.464 8.258 25.741 3.873-1.884-.998-3.655-2.287-5.241-3.873z" fill="#ec625e"/></g><g><circle cx="330.33" cy="158.175" fill="#f87c68" r="21.907"/><path d="m335.339 173.665c-8.555-8.555-8.555-22.426 0-30.981 1.586-1.586 3.357-2.875 5.241-3.873-8.277-4.385-18.772-3.096-25.741 3.873-8.555 8.555-8.555 22.426 0 30.981 6.969 6.969 17.464 8.258 25.741 3.873-1.884-.997-3.654-2.287-5.241-3.873z" fill="#ec625e"/></g><g><circle cx="274.891" cy="102.735" fill="#f87c68" r="21.907"/><path d="m279.9 118.226c-8.555-8.555-8.555-22.426 0-30.981 1.586-1.586 3.357-2.875 5.241-3.873-8.277-4.385-18.772-3.096-25.741 3.873-8.555 8.555-8.555 22.426 0 30.981 6.969 6.969 17.464 8.258 25.741 3.873-1.884-.998-3.655-2.287-5.241-3.873z" fill="#ec625e"/></g><g><circle cx="134.171" cy="272.484" fill="#f87c68" r="21.907"/><path d="m139.181 287.975c-8.555-8.555-8.555-22.426 0-30.981 1.586-1.586 3.357-2.875 5.241-3.873-8.277-4.385-18.772-3.096-25.741 3.873-8.555 8.555-8.555 22.426 0 30.981 6.969 6.969 17.464 8.258 25.741 3.873-1.885-.998-3.655-2.287-5.241-3.873z" fill="#ec625e"/></g><g><circle cx="228.397" cy="272.484" fill="#f87c68" r="21.907"/><path d="m233.406 287.975c-8.555-8.555-8.555-22.426 0-30.981 1.586-1.586 3.357-2.875 5.241-3.873-8.277-4.385-18.772-3.096-25.741 3.873-8.555 8.555-8.555 22.426 0 30.981 6.969 6.969 17.464 8.258 25.741 3.873-1.885-.998-3.655-2.287-5.241-3.873z" fill="#ec625e"/></g><g><circle cx="134.171" cy="350.888" fill="#f87c68" r="21.907"/><path d="m139.181 366.378c-8.555-8.555-8.555-22.426 0-30.981 1.586-1.586 3.357-2.875 5.241-3.873-8.277-4.385-18.772-3.096-25.741 3.873-8.555 8.555-8.555 22.426 0 30.981 6.969 6.969 17.464 8.258 25.741 3.873-1.885-.997-3.655-2.286-5.241-3.873z" fill="#ec625e"/></g><g><circle cx="228.397" cy="350.888" fill="#f87c68" r="21.907"/><path d="m233.406 366.378c-8.555-8.555-8.555-22.426 0-30.981 1.586-1.586 3.357-2.875 5.241-3.873-8.277-4.385-18.772-3.096-25.741 3.873-8.555 8.555-8.555 22.426 0 30.981 6.969 6.969 17.464 8.258 25.741 3.873-1.885-.997-3.655-2.286-5.241-3.873z" fill="#ec625e"/></g><g><circle cx="134.171" cy="429.291" fill="#f87c68" r="21.907"/><path d="m139.181 444.782c-8.555-8.555-8.555-22.426 0-30.981 1.586-1.586 3.357-2.875 5.241-3.873-8.277-4.385-18.772-3.096-25.741 3.873-8.555 8.555-8.555 22.426 0 30.981 6.969 6.969 17.464 8.258 25.741 3.873-1.885-.998-3.655-2.287-5.241-3.873z" fill="#ec625e"/></g><g><circle cx="228.397" cy="429.291" fill="#f87c68" r="21.907"/><path d="m233.406 444.782c-8.555-8.555-8.555-22.426 0-30.981 1.586-1.586 3.357-2.875 5.241-3.873-8.277-4.385-18.772-3.096-25.741 3.873-8.555 8.555-8.555 22.426 0 30.981 6.969 6.969 17.464 8.258 25.741 3.873-1.885-.998-3.655-2.287-5.241-3.873z" fill="#ec625e"/></g></g><g><path d="m134.357 243.422c-16.215 0-29.407 13.192-29.407 29.407s13.192 29.407 29.407 29.407 29.407-13.192 29.407-29.407-13.192-29.407-29.407-29.407zm0 43.815c-7.944 0-14.407-6.463-14.407-14.407s6.463-14.407 14.407-14.407 14.407 6.463 14.407 14.407-6.462 14.407-14.407 14.407z"/><path d="m134.357 321.826c-16.215 0-29.407 13.192-29.407 29.407s13.192 29.407 29.407 29.407 29.407-13.192 29.407-29.407-13.192-29.407-29.407-29.407zm0 43.814c-7.944 0-14.407-6.463-14.407-14.407s6.463-14.407 14.407-14.407 14.407 6.463 14.407 14.407-6.462 14.407-14.407 14.407z"/><path d="m134.357 400.229c-16.215 0-29.407 13.192-29.407 29.407s13.192 29.407 29.407 29.407 29.407-13.192 29.407-29.407c.001-16.215-13.192-29.407-29.407-29.407zm0 43.814c-7.944 0-14.407-6.463-14.407-14.407s6.463-14.407 14.407-14.407 14.407 6.463 14.407 14.407c.001 7.944-6.462 14.407-14.407 14.407z"/><path d="m228.583 302.237c16.215 0 29.407-13.192 29.407-29.407s-13.192-29.407-29.407-29.407-29.407 13.192-29.407 29.407 13.192 29.407 29.407 29.407zm0-43.815c7.944 0 14.407 6.463 14.407 14.407s-6.463 14.407-14.407 14.407-14.407-6.463-14.407-14.407 6.463-14.407 14.407-14.407z"/><path d="m228.583 380.64c16.215 0 29.407-13.192 29.407-29.407s-13.192-29.407-29.407-29.407-29.407 13.192-29.407 29.407 13.192 29.407 29.407 29.407zm0-43.814c7.944 0 14.407 6.463 14.407 14.407s-6.463 14.407-14.407 14.407-14.407-6.463-14.407-14.407 6.463-14.407 14.407-14.407z"/><path d="m228.583 459.043c16.215 0 29.407-13.192 29.407-29.407s-13.192-29.407-29.407-29.407-29.407 13.192-29.407 29.407 13.192 29.407 29.407 29.407zm0-43.814c7.944 0 14.407 6.463 14.407 14.407s-6.463 14.407-14.407 14.407-14.407-6.463-14.407-14.407 6.463-14.407 14.407-14.407z"/><path d="m275.077 73.673c-7.855 0-15.24 3.059-20.794 8.613h-.001c-11.465 11.466-11.465 30.122 0 41.588 5.555 5.555 12.939 8.613 20.795 8.613 7.854 0 15.239-3.059 20.793-8.613 5.555-5.554 8.614-12.939 8.614-20.794 0-7.854-3.06-15.24-8.613-20.794-5.555-5.554-12.939-8.613-20.794-8.613zm10.187 39.595c-2.721 2.721-6.339 4.22-10.187 4.22-3.849 0-7.467-1.499-10.188-4.22-5.617-5.617-5.617-14.758 0-20.375h-.001c2.722-2.721 6.34-4.22 10.188-4.22s7.466 1.499 10.187 4.22c2.722 2.721 4.221 6.339 4.221 10.188s-1.499 7.465-4.22 10.187z"/><path d="m330.517 187.927c7.855 0 15.24-3.06 20.793-8.614 5.555-5.554 8.614-12.939 8.614-20.794 0-7.854-3.06-15.24-8.613-20.794-5.555-5.554-12.939-8.613-20.794-8.613s-15.24 3.059-20.794 8.613h-.001c-11.465 11.466-11.465 30.123 0 41.588 5.554 5.555 12.939 8.614 20.795 8.614zm-10.189-39.595c2.722-2.721 6.34-4.22 10.188-4.22s7.466 1.499 10.187 4.22c2.722 2.721 4.221 6.339 4.221 10.188s-1.499 7.466-4.221 10.188c-2.721 2.721-6.339 4.22-10.187 4.22-3.849 0-7.467-1.499-10.188-4.22-5.616-5.618-5.616-14.758 0-20.376z"/><path d="m385.956 243.367c7.855 0 15.24-3.06 20.793-8.614 5.555-5.554 8.614-12.939 8.614-20.794 0-7.854-3.06-15.24-8.613-20.794-5.555-5.554-12.939-8.613-20.794-8.613s-15.24 3.059-20.794 8.613h-.001c-11.465 11.466-11.465 30.123 0 41.588 5.555 5.555 12.94 8.614 20.795 8.614zm-10.188-39.596c2.722-2.721 6.34-4.22 10.188-4.22s7.466 1.499 10.187 4.22c2.722 2.721 4.221 6.339 4.221 10.188s-1.499 7.466-4.221 10.188c-2.721 2.721-6.339 4.22-10.187 4.22-3.849 0-7.467-1.499-10.188-4.22-5.617-5.618-5.617-14.758 0-20.376z"/><path d="m452.357 0h-243.681c-20.225 0-36.679 16.454-36.679 36.679v158.268h-112.367c-20.226 0-36.68 16.454-36.68 36.679v243.681c0 20.225 16.454 36.679 36.68 36.679h104.34c4.143 0 7.5-3.358 7.5-7.5s-3.357-7.5-7.5-7.5h-104.34c-11.954 0-21.68-9.725-21.68-21.679v-243.681c0-11.954 9.726-21.679 21.68-21.679h119.867 123.813c11.954 0 21.68 9.725 21.68 21.679v77.913 165.768c0 11.954-9.726 21.679-21.68 21.679h-104.34c-4.143 0-7.5 3.358-7.5 7.5s3.357 7.5 7.5 7.5h104.341c20.226 0 36.68-16.454 36.68-36.679v-158.268h112.367c20.225 0 36.679-16.454 36.679-36.679v-101.94c0-4.142-3.357-7.5-7.5-7.5s-7.5 3.358-7.5 7.5v101.94c0 11.954-9.725 21.679-21.679 21.679h-112.368v-70.413c0-20.225-16.454-36.679-36.68-36.679h-116.313v-158.268c0-11.954 9.725-21.679 21.679-21.679h243.682c11.954 0 21.679 9.725 21.679 21.679v106.741c0 4.142 3.357 7.5 7.5 7.5s7.5-3.358 7.5-7.5v-106.741c-.001-20.225-16.455-36.679-36.68-36.679z"/></g></g></svg>